<?xml version="1.0" encoding="UTF-8" standalone="no"?>
<svg
   xmlns:dc="http://purl.org/dc/elements/1.1/"
   xmlns:cc="http://creativecommons.org/ns#"
   xmlns:rdf="http://www.w3.org/1999/02/22-rdf-syntax-ns#"
   xmlns:svg="http://www.w3.org/2000/svg"
   xmlns="http://www.w3.org/2000/svg"
   version="1.1"
   id="svg3413"
   viewBox="0 0 100 100"
   height="100"
   width="100">
  <defs
     id="defs3415" />
  <metadata
     id="metadata3418">
    <rdf:RDF>
      <cc:Work
         rdf:about="">
        <dc:format>image/svg+xml</dc:format>
        <dc:type
           rdf:resource="http://purl.org/dc/dcmitype/StillImage" />
        <dc:title></dc:title>
      </cc:Work>
    </rdf:RDF>
  </metadata>
  <g
     transform="translate(0,-952.36216)"
     id="layer1">
    <g
       id="flowRoot3421"
       style="font-style:normal;font-variant:normal;font-weight:normal;font-stretch:normal;font-size:69.90325165px;line-height:125%;font-family:FontAwesome;-inkscape-font-specification:FontAwesome;letter-spacing:0px;word-spacing:0px;fill:#000000;fill-opacity:1;stroke:none;stroke-width:1px;stroke-linecap:butt;stroke-linejoin:miter;stroke-opacity:1"
       transform="matrix(1.5756892,0,0,1.5756892,-19.401829,-549.93635)">
      <path
         id="path3430"
         style=""
         d="m 44.101115,955.70478 c -16.539609,0 -29.958537,13.41893 -29.958537,29.95854 0,13.22388 8.581873,24.45838 20.479468,28.43718 1.521332,0.2731 2.067451,-0.6631 2.067451,-1.4433 0,-0.7412 -0.03901,-3.0817 -0.03901,-5.5782 0,0 -8.347821,1.7944 -10.103204,-3.5498 0,0 -1.365298,-3.4717 -3.315724,-4.36894 0,0 -2.730596,-1.87241 0.195043,-1.8334 0,0 2.964647,0.23405 4.603004,3.08164 2.61357,4.603 6.982523,3.2767 8.698898,2.4966 0.27306,-1.9114 1.05323,-3.23773 1.911417,-4.0179 -6.670455,-0.74116 -13.652979,-3.31572 -13.652979,-14.78422 0,-3.27672 1.170256,-5.9293 3.081673,-8.03576 -0.312069,-0.78017 -1.32629,-3.82283 0.312068,-7.95773 2.496544,-0.78017 8.230795,3.08167 8.230795,3.08167 2.37952,-0.66315 4.954081,-1.01422 7.489635,-1.01422 2.535553,0 5.110114,0.35107 7.489634,1.01422 0,0 5.734251,-3.86184 8.230795,-3.08167 1.638358,4.1349 0.624137,7.17756 0.312069,7.95773 1.911417,2.10646 3.081672,4.75904 3.081672,8.03576 0,11.50751 -7.021532,14.04306 -13.691987,14.78422 1.092238,0.93621 2.028442,2.7306 2.028442,5.5392 0,4.0179 -0.03901,7.2556 -0.03901,8.2308 0,0.7802 0.546119,1.7164 2.067451,1.4433 11.897596,-3.9788 20.479468,-15.2133 20.479468,-28.43718 0,-16.53961 -13.418928,-29.95854 -29.958536,-29.95854 z m -18.60706,43.02639 c -0.07802,0.15603 -0.312068,0.19504 -0.507111,0.078 -0.234051,-0.11702 -0.351076,-0.31206 -0.273059,-0.4681 0.07802,-0.11702 0.273059,-0.15603 0.50711,-0.078 0.234051,0.11703 0.351077,0.31207 0.27306,0.46811 z m 1.209264,1.32633 c -0.156034,0.156 -0.429094,0.078 -0.624137,-0.11707 -0.195042,-0.23405 -0.234051,-0.50711 -0.07802,-0.62414 0.156035,-0.15603 0.429094,-0.078 0.624137,0.11703 0.195042,0.23405 0.234051,0.50711 0.07802,0.62418 z m 1.170255,1.7553 c -0.156034,0.1171 -0.468102,0 -0.663145,-0.273 -0.195042,-0.2731 -0.195042,-0.5851 0,-0.7022 0.195043,-0.156 0.507111,-0.039 0.663145,0.2341 0.195043,0.273 0.195043,0.5851 0,0.7411 z m 1.638357,1.6384 c -0.156034,0.195 -0.50711,0.156 -0.78017,-0.117 -0.273059,-0.2341 -0.351076,-0.5852 -0.156034,-0.7412 0.156034,-0.195 0.507111,-0.156 0.78017,0.117 0.234051,0.2341 0.312068,0.5852 0.156034,0.7412 z m 2.223486,0.9752 c -0.07802,0.2341 -0.429094,0.3511 -0.741162,0.2341 -0.351077,-0.078 -0.585128,-0.3511 -0.507111,-0.5852 0.07802,-0.234 0.429094,-0.351 0.741162,-0.273 0.351077,0.117 0.585128,0.3901 0.507111,0.6241 z m 2.457536,0.1951 c 0,0.234 -0.27306,0.429 -0.624136,0.429 -0.390086,0.039 -0.663145,-0.156 -0.663145,-0.429 0,-0.2341 0.273059,-0.4291 0.624136,-0.4291 0.351077,-0.039 0.663145,0.156 0.663145,0.4291 z m 2.262493,-0.3901 c 0.03901,0.234 -0.195042,0.4681 -0.546119,0.5461 -0.351076,0.078 -0.663144,-0.078 -0.702153,-0.3121 -0.03901,-0.273 0.195043,-0.5071 0.546119,-0.5851 0.351077,-0.039 0.663145,0.117 0.702153,0.3511 z" />
    </g>
  </g>
</svg>
