<?xml version="1.0" encoding="UTF-8" standalone="no"?>
<svg
   xmlns:dc="http://purl.org/dc/elements/1.1/"
   xmlns:cc="http://creativecommons.org/ns#"
   xmlns:rdf="http://www.w3.org/1999/02/22-rdf-syntax-ns#"
   xmlns:svg="http://www.w3.org/2000/svg"
   xmlns="http://www.w3.org/2000/svg"
   version="1.1"
   id="svg2"
   viewBox="0 0 100 100"
   height="100"
   width="100">
  <defs
     id="defs4" />
  <metadata
     id="metadata7">
    <rdf:RDF>
      <cc:Work
         rdf:about="">
        <dc:format>image/svg+xml</dc:format>
        <dc:type
           rdf:resource="http://purl.org/dc/dcmitype/StillImage" />
        <dc:title></dc:title>
      </cc:Work>
    </rdf:RDF>
  </metadata>
  <g
     transform="translate(0,-952.36216)"
     id="layer1">
    <g
       id="flowRoot3336"
       style="font-style:normal;font-variant:normal;font-weight:normal;font-stretch:normal;font-size:85.88349915px;line-height:125%;font-family:FontAwesome;-inkscape-font-specification:FontAwesome;letter-spacing:0px;word-spacing:0px;fill:#000000;fill-opacity:1;stroke:none;stroke-width:1px;stroke-linecap:butt;stroke-linejoin:miter;stroke-opacity:1"
       transform="matrix(1.2310863,0,0,1.2310863,-15.655978,-204.20333)">
      <path
         id="path3345"
         style=""
         d="m 81.104892,983.79001 c 0,-0.0959 0,-0.19171 -0.04793,-0.28756 L 53.499482,960.7855 25.941997,983.50245 c 0,0.0959 -0.04793,0.19171 -0.04793,0.28756 l 0,23.00449 c 0,1.6774 1.389856,3.0673 3.067268,3.0673 l 18.403607,0 0,-18.40362 12.269071,0 0,18.40362 18.403607,0 c 1.677412,0 3.067268,-1.3899 3.067268,-3.0673 l 0,-23.00449 z m 10.687512,-3.3069 c 0.527186,-0.62304 0.431334,-1.62949 -0.191705,-2.15667 l -10.495807,-8.72255 0,-19.55383 c 0,-0.86267 -0.670965,-1.53363 -1.533634,-1.53363 l -9.201803,0 c -0.862669,0 -1.533634,0.67096 -1.533634,1.53363 l 0,9.34558 -11.693959,-9.77691 c -2.012894,-1.67741 -5.271866,-1.67741 -7.284761,0 l -34.458837,28.70771 c -0.623039,0.52718 -0.718891,1.53363 -0.191704,2.15667 l 2.971416,3.54653 c 0.23963,0.28755 0.623038,0.47926 1.006447,0.52719 0.431334,0.0479 0.814743,-0.0959 1.150225,-0.33549 l 33.164834,-27.65333 33.164833,27.65333 c 0.287556,0.23963 0.623039,0.33549 1.006447,0.33549 0.04793,0 0.09585,0 0.143779,0 0.383408,-0.0479 0.766817,-0.23964 1.006447,-0.52719 l 2.971416,-3.54653 z" />
    </g>
  </g>
</svg>
