<?xml version="1.0" encoding="UTF-8" standalone="no"?>
<svg
   xmlns:dc="http://purl.org/dc/elements/1.1/"
   xmlns:cc="http://creativecommons.org/ns#"
   xmlns:rdf="http://www.w3.org/1999/02/22-rdf-syntax-ns#"
   xmlns:svg="http://www.w3.org/2000/svg"
   xmlns="http://www.w3.org/2000/svg"
   version="1.1"
   id="svg2"
   viewBox="0 0 100 100"
   height="100"
   width="100">
  <defs
     id="defs4" />
  <metadata
     id="metadata7">
    <rdf:RDF>
      <cc:Work
         rdf:about="">
        <dc:format>image/svg+xml</dc:format>
        <dc:type
           rdf:resource="http://purl.org/dc/dcmitype/StillImage" />
        <dc:title></dc:title>
      </cc:Work>
    </rdf:RDF>
  </metadata>
  <g
     transform="translate(0,-952.36216)"
     id="layer1">
    <g
       id="flowRoot3495"
       style="font-style:normal;font-variant:normal;font-weight:normal;font-stretch:normal;font-size:129.78413391px;line-height:125%;font-family:FontAwesome;-inkscape-font-specification:FontAwesome;letter-spacing:0px;word-spacing:0px;fill:#000000;fill-opacity:1;stroke:none;stroke-width:1px;stroke-linecap:butt;stroke-linejoin:miter;stroke-opacity:1"
       transform="matrix(1.2676212,0,0,1.2676212,-1.3627963,-280.93583)">
      <path
         id="path3523"
         style=""
         d="m 48.156056,1042.492 c 0,-0.5794 -0.289697,-1.2313 -0.724242,-1.6658 L 18.96911,1012.3635 47.431814,983.90079 c 0.434545,-0.43455 0.724242,-1.08637 0.724242,-1.66576 0,-0.57939 -0.289697,-1.23121 -0.724242,-1.66575 l -3.621209,-3.62121 c -0.434545,-0.43455 -1.086363,-0.72425 -1.665756,-0.72425 -0.579394,0 -1.231211,0.2897 -1.665756,0.72425 L 6.7294238,1010.6977 c -0.4345451,0.4346 -0.7242419,1.0864 -0.7242419,1.6658 0,0.5794 0.2896968,1.2312 0.7242419,1.6657 l 33.7496692,33.7497 c 0.434545,0.4346 1.086362,0.7243 1.665756,0.7243 0.579393,0 1.231211,-0.2897 1.665756,-0.7243 l 3.621209,-3.6212 c 0.434545,-0.4345 0.724242,-1.0864 0.724242,-1.6657 z m 27.810886,0 c 0,-0.5794 -0.289697,-1.2313 -0.724242,-1.6658 L 46.779996,1012.3635 75.2427,983.90079 c 0.434545,-0.43455 0.724242,-1.08637 0.724242,-1.66576 0,-0.57939 -0.289697,-1.23121 -0.724242,-1.66575 l -3.621209,-3.62121 c -0.434545,-0.43455 -1.086363,-0.72425 -1.665756,-0.72425 -0.579394,0 -1.231212,0.2897 -1.665757,0.72425 L 34.54031,1010.6977 c -0.434546,0.4346 -0.724242,1.0864 -0.724242,1.6658 0,0.5794 0.289696,1.2312 0.724242,1.6657 l 33.749668,33.7497 c 0.434545,0.4346 1.086363,0.7243 1.665757,0.7243 0.579393,0 1.231211,-0.2897 1.665756,-0.7243 l 3.621209,-3.6212 c 0.434545,-0.4345 0.724242,-1.0864 0.724242,-1.6657 z" />
    </g>
  </g>
</svg>
