<?xml version="1.0" encoding="UTF-8" standalone="no"?>
<svg
   xmlns:dc="http://purl.org/dc/elements/1.1/"
   xmlns:cc="http://creativecommons.org/ns#"
   xmlns:rdf="http://www.w3.org/1999/02/22-rdf-syntax-ns#"
   xmlns:svg="http://www.w3.org/2000/svg"
   xmlns="http://www.w3.org/2000/svg"
   version="1.1"
   id="svg3451"
   viewBox="0 0 100 100"
   height="100"
   width="100">
  <defs
     id="defs3453" />
  <metadata
     id="metadata3456">
    <rdf:RDF>
      <cc:Work
         rdf:about="">
        <dc:format>image/svg+xml</dc:format>
        <dc:type
           rdf:resource="http://purl.org/dc/dcmitype/StillImage" />
        <dc:title></dc:title>
      </cc:Work>
    </rdf:RDF>
  </metadata>
  <g
     transform="translate(0,-952.36216)"
     id="layer1">
    <g
       id="flowRoot3459"
       style="font-style:normal;font-variant:normal;font-weight:normal;font-stretch:normal;font-size:40px;line-height:125%;font-family:FontAwesome;-inkscape-font-specification:FontAwesome;letter-spacing:0px;word-spacing:0px;fill:#000000;fill-opacity:1;stroke:none;stroke-width:1px;stroke-linecap:butt;stroke-linejoin:miter;stroke-opacity:1"
       transform="matrix(2.7530356,0,0,2.7530356,-27.812313,856.75241)">
      <path
         id="path3480"
         style=""
         d="m 18.901507,46.760603 -7.366072,0 0,22.120535 7.366072,0 0,-22.120535 z m 0.46875,-6.830357 c -0.02232,-2.165179 -1.584822,-3.816965 -4.107143,-3.816965 -2.5,0 -4.151786,1.651786 -4.151786,3.816965 0,2.120535 1.584822,3.816964 4.0625,3.816964 l 0.04464,0 c 2.566964,0 4.174107,-1.696429 4.151786,-3.816964 z m 26.026785,16.272321 c 0,-6.785714 -3.616071,-9.955357 -8.459821,-9.955357 -3.973214,0 -5.714286,2.209821 -6.674107,3.727678 l 0.04464,0 0,-3.214285 -7.34375,0 c 0,0 0.08929,2.075893 0,22.120535 l 7.34375,0 0,-12.34375 c 0,-0.669642 0.06696,-1.316964 0.245535,-1.808035 0.535715,-1.316965 1.741072,-2.678572 3.772322,-2.678572 2.65625,0 3.727678,2.03125 3.727678,5 l 0,11.830357 7.34375,0 0,-12.678571 z" />
    </g>
  </g>
</svg>
