<?xml version="1.0" encoding="UTF-8" standalone="no"?>
<svg
   xmlns:dc="http://purl.org/dc/elements/1.1/"
   xmlns:cc="http://creativecommons.org/ns#"
   xmlns:rdf="http://www.w3.org/1999/02/22-rdf-syntax-ns#"
   xmlns:svg="http://www.w3.org/2000/svg"
   xmlns="http://www.w3.org/2000/svg"
   version="1.1"
   id="svg2"
   viewBox="0 0 100 100"
   height="100"
   width="100">
  <defs
     id="defs4" />
  <metadata
     id="metadata7">
    <rdf:RDF>
      <cc:Work
         rdf:about="">
        <dc:format>image/svg+xml</dc:format>
        <dc:type
           rdf:resource="http://purl.org/dc/dcmitype/StillImage" />
        <dc:title></dc:title>
      </cc:Work>
    </rdf:RDF>
  </metadata>
  <g
     transform="translate(0,-952.36216)"
     id="layer1">
    <g
       id="flowRoot3427"
       style="font-style:normal;font-variant:normal;font-weight:normal;font-stretch:normal;font-size:171.04856873px;line-height:125%;font-family:FontAwesome;-inkscape-font-specification:FontAwesome;letter-spacing:0px;word-spacing:0px;fill:#000000;fill-opacity:1;stroke:none;stroke-width:1px;stroke-linecap:butt;stroke-linejoin:miter;stroke-opacity:1"
       transform="matrix(0.95070068,0,0,0.95070068,1.5031639,29.581092)">
      <path
         id="path3436"
         style=""
         d="m 60.842298,1023.8548 c 0,-0.7636 -0.381805,-1.6227 -0.954512,-2.1954 L 15.407522,977.17914 c -0.572707,-0.5727 -1.431768,-0.95451 -2.195378,-0.95451 -0.763609,0 -1.62267,0.38181 -2.195378,0.95451 l -4.77256,4.77256 c -0.5727073,0.57271 -0.9545121,1.43177 -0.9545121,2.19538 0,0.76361 0.3818048,1.62267 0.9545121,2.19538 l 37.512326,37.51234 -37.512326,37.5123 c -0.5727073,0.5727 -0.9545121,1.4318 -0.9545121,2.1954 0,0.7636 0.3818048,1.6227 0.9545121,2.1954 l 4.77256,4.7725 c 0.572708,0.5727 1.431769,0.9545 2.195378,0.9545 0.76361,0 1.622671,-0.3818 2.195378,-0.9545 l 44.480264,-44.4802 c 0.572707,-0.5727 0.954512,-1.4318 0.954512,-2.1954 z m 36.653265,0 c 0,-0.7636 -0.381805,-1.6227 -0.954512,-2.1954 L 52.060787,977.17914 c -0.572707,-0.5727 -1.431768,-0.95451 -2.195378,-0.95451 -0.76361,0 -1.622671,0.38181 -2.195378,0.95451 l -4.77256,4.77256 c -0.572708,0.57271 -0.954512,1.43177 -0.954512,2.19538 0,0.76361 0.381804,1.62267 0.954512,2.19538 l 37.512325,37.51234 -37.512325,37.5123 c -0.572708,0.5727 -0.954512,1.4318 -0.954512,2.1954 0,0.7636 0.381804,1.6227 0.954512,2.1954 l 4.77256,4.7725 c 0.572707,0.5727 1.431768,0.9545 2.195378,0.9545 0.76361,0 1.622671,-0.3818 2.195378,-0.9545 l 44.480264,-44.4802 c 0.572707,-0.5727 0.954512,-1.4318 0.954512,-2.1954 z" />
    </g>
  </g>
</svg>
