<svg version="1" xmlns="http://www.w3.org/2000/svg" width="1333.333" height="1333.333" viewBox="0 0 1000.000000 1000.000000"><path d="M487 11.2c-5.8 2.7-13.2 6.2-16.5 7.8-6.2 2.9-15.3 7.1-34 16-6 2.9-13.5 6.3-16.5 7.7-3 1.4-12 5.7-19.9 9.4-7.9 3.8-14.5 6.9-14.6 6.9-.2 0-8.3 3.8-18 8.5s-17.8 8.5-18 8.5c-.2 0-5.9 2.6-12.7 5.9-12.7 6-26.6 12.7-39.8 18.8-8.5 4-20 9.4-34 16.1-5.2 2.4-12.6 5.9-16.5 7.7-3.8 1.8-11.7 5.5-17.5 8.2-5.8 2.8-14.1 6.7-18.5 8.8-4.4 2.1-13.5 6.4-20.3 9.6-6.8 3.3-12.5 5.9-12.6 5.9-.2 0-7.3 3.3-15.7 7.4-8.5 4-18.5 8.8-22.4 10.6-3.8 1.8-11.7 5.5-17.5 8.2-5.8 2.8-13.4 6.4-17 8-3.6 1.7-12.5 5.9-19.9 9.4-7.3 3.5-13.5 6.4-13.6 6.4-.2 0-6.8 3.1-14.7 6.9-27.2 13-35.9 17.1-36.5 17.1-.3 0-1.9 1-3.5 2.2-6.5 4.5-9.7 17.5-6.9 27.5 1.9 7 5.4 10 18.9 16.4 6.8 3.2 12.6 5.9 12.8 5.9.2 0 7.4 3.4 15.9 7.5 8.6 4.1 15.8 7.5 15.9 7.5.3 0 4.5 1.9 32.1 15 5 2.4 12.2 5.7 16 7.5 3.9 1.8 11.1 5.2 16 7.5 5 2.3 11.8 5.5 15.1 7 3.4 1.6 6.4 3.2 6.8 3.8.3.5-1.3 5.2-3.5 10.3-10.2 23.8-22.6 68.1-26.4 94.4-.4 2.2-.8 4.7-1 5.5-.2.8-.7 3.7-1.1 6.5-.3 2.7-.8 5.7-.9 6.7-.2.9-.6 3.8-1 6.5-.4 2.6-.9 5.9-1.1 7.3-.2 1.4-.6 5.4-.9 9-.4 3.6-.8 7.2-1 8-.2.8-.7 5.3-1 10-.4 4.7-.8 10.1-1 12-.2 1.9-.7 9.8-1 17.5-.7 17.5-.8 17.7-5.1 22.1-11.2 11.6-18.8 28.6-22.5 50.4-1 6-1.3 26.7-.4 31.5 3 16.4 4.4 21.4 9 31.9 2.4 5.5 8.1 14.5 11.7 18.3l3 3.1-.7 11.9c-.4 6.5-.8 12-1 12.3-.2.3-.6 4.5-1 9.5-.3 4.9-.8 10.6-1 12.5-.3 1.9-.7 6.6-1 10.5-.2 3.8-.7 9-.9 11.5-.3 2.5-.8 7.9-1.2 12-.4 4.1-.8 8.8-.9 10.5-.2 1.6-.6 7-1 11.9s-.8 9.6-1 10.5c-.1.9-.6 5.4-.9 10.1-.4 4.7-.9 10.1-1.1 12-.2 1.9-.7 6.9-1 11-.3 4.1-.8 9.5-1 12-.3 2.5-.7 7.4-1 11-.2 3.6-.7 8.5-.9 11-.3 2.5-.8 7.6-1.1 11.5-.3 3.8-.8 8.6-1 10.5-.2 1.9-.7 7.1-1 11.5-.3 4.4-.8 9.6-1 11.5-.2 1.9-.7 6.9-1 11-.3 4.1-.8 9.1-1 11-.2 1.9-.7 7.3-1 12-.4 4.7-.9 9.8-1.1 11.5-1.1 8.1-.5 16.5 1.4 20.7 1.9 4.4 6.6 9.7 8.6 9.9.6.1 20 .2 43.1.3 43.5.1 47-.2 50.1-4.1 4.9-6.1 6.3-13.5 4.9-27.3-.1-1.9-.6-6.7-.9-10.5-.4-3.9-.8-9-1.1-11.5-.2-2.5-.7-7.9-1-12-.4-4.1-.8-8.6-1-10-.2-1.4-.7-6.8-1-12-.4-5.2-.9-10.9-1.1-12.5-.2-1.7-.6-6.4-1-10.5-.3-4.1-.7-8.9-.9-10.5-.5-5.2-1.5-16.8-2-22-1.4-17.2-1.6-20.2-2-22.5-.2-1.4-.6-6.5-1-11.3-.4-4.9-.8-9.8-1-11-.2-1.2-.6-6.3-1-11.2-.3-5-.8-10.4-1-12-.2-1.7-.6-5.9-.9-9.5-.3-3.6-1-11.7-1.6-18-.6-6.3-1.3-14.2-1.5-17.5-.3-3.3-.8-8-1-10.5-1.2-13-1.5-17.1-2-23.5-.3-3.9-.7-7.9-.9-9-.2-1.2 1.1-3.5 3.1-5.8 7.2-8 13-19.1 16.9-32.2 2-6.9 2-6.6 2.8-12.2 1.4-8.6 1.6-11 1.7-18.8.3-26.7-7.9-51.5-22.5-67.3-4.1-4.5-4.2-4.9-4-10.7.3-8 1.3-23.7 1.9-29.4.3-2.5.7-6.6 1-9.1 5.6-53.6 16.5-97.6 30.7-124.5 2.7-5 9.5-15.2 10.7-15.9.5-.3 6.7 2.2 13.7 5.5 7.1 3.4 17.2 8.1 22.4 10.6 5.2 2.5 13.3 6.3 18 8.5 4.7 2.2 13.7 6.5 20 9.5 6.3 3.1 14.2 6.8 17.5 8.3 6.1 2.8 17.8 8.4 41.3 19.6 7.4 3.5 13.5 6.4 13.7 6.4.1 0 7.9 3.6 17.1 8.1 9.3 4.5 19.6 9.4 22.9 10.9 7.3 3.4 23.1 10.9 38 18 6.1 2.9 14.6 6.9 19 9 4.4 2.1 14.2 6.8 21.8 10.4 7.6 3.6 15.3 6.8 17.1 7 2.2.3 5.3-.6 9.7-2.6 3.5-1.7 12.5-5.8 19.9-9.3 7.4-3.5 18.9-8.9 25.5-12 6.6-3.1 15.4-7.3 19.5-9.2 4.1-1.9 11.8-5.5 17-8 5.2-2.5 24.4-11.5 42.5-20 18.2-8.6 37.7-17.8 43.5-20.5 5.8-2.8 13.9-6.6 18-8.5 4.1-2 14-6.6 21.9-10.4 7.9-3.8 14.5-6.9 14.7-6.9.2 0 7.8-3.6 17-8 9.1-4.4 16.7-8 16.9-8 .1 0 6.5-3 14.1-6.6 7.7-3.7 17.2-8.2 21.2-10 3.9-1.9 10.5-4.9 14.5-6.8 3.9-1.8 13.1-6.2 20.2-9.6 7.2-3.4 15.7-7.5 19-9 12.8-5.9 22.2-10.4 52-24.5 5.5-2.6 12.7-6 16-7.5 3.3-1.5 11.4-5.3 18-8.5 6.6-3.1 17-7.9 23-10.8 19.8-9.3 22.9-11.1 25.2-14.6 5.3-8 5.7-20.3.9-28.5-3.1-5.2-.9-4-39.1-22.1-4.4-2.1-12.7-6-18.5-8.8-5.8-2.7-14.1-6.6-18.5-8.7-4.4-2-12.3-5.8-17.5-8.2-5.2-2.5-12.6-6-16.5-7.8-3.8-1.8-11.7-5.5-17.5-8.2-5.8-2.8-13.6-6.5-17.5-8.3-6.4-3-51.2-24.1-71.5-33.7-4.7-2.2-23.6-11.1-42-19.8-18.4-8.7-37.8-17.8-43-20.3-5.2-2.4-12.9-6-17-8-4.1-1.9-12.9-6.1-19.5-9.2-6.6-3.1-26.8-12.7-45-21.2-18.1-8.6-37.3-17.6-42.5-20-5.2-2.5-12.2-5.8-15.5-7.3-3.3-1.5-11.2-5.2-17.5-8.2-32.3-15.5-29.6-15-45-7.6z"/><path d="M765 461.1c-1.4.8-24.6 11.9-40 19.1-3.6 1.7-11.2 5.3-17 8-5.8 2.8-13.6 6.5-17.5 8.3-3.8 1.8-11.7 5.5-17.5 8.3-10.1 4.8-35.6 16.8-56.5 26.7-5.5 2.6-14 6.6-19 9-12.5 5.9-27.7 13.1-36 17-3.8 1.8-13.3 6.3-21 10-24.4 11.7-27.5 12.7-38.5 13-7.9.2-17.1-2.2-26.7-6.9-3.9-2-10-4.9-13.5-6.5-3.5-1.6-11.2-5.2-17.3-8.1-6-2.9-15-7.2-20-9.5-12.4-5.8-43-20.3-54.5-25.8-5.2-2.5-13.5-6.4-18.5-8.7-24.4-11.5-39.8-18.8-55.5-26.3-39-18.6-58.8-27.7-59.9-27.7-.7 0-1.1 3.1-1.2 8.2 0 4.6-.2 10.3-.4 12.8-.1 2.5-.6 13.7-.9 25-.4 11.3-.9 24.3-1.1 29-.5 8.9-1.1 24.6-2 51.5-.3 8.8-.8 20.3-1 25.5-1.1 25-1.8 47.2-1.8 53.5.1 39.1 23.8 75.8 67.8 105.2 13.9 9.3 24 14.8 46 24.8 12.5 5.8 49.1 17.4 62.8 20 1.2.3 5.6 1.1 9.7 2 9.4 1.8 23.9 4.2 30.5 5 2.8.4 6.1.8 7.5 1.1 11.8 1.9 69 2.7 85.5 1.1 4.4-.4 10.7-1 14-1.3 5.1-.5 28.1-4 38-5.9 19-3.6 44.9-11.3 66.5-20 50.5-20.2 88.4-50.1 106.9-84.5 4.1-7.8 9.6-22.8 10.7-29.5.3-2 .8-4.7 1-5.9.5-2.2.4-25.6-.1-36.6-.3-6.9-1.4-34.7-2-52-.2-5.8-.6-16.1-.9-23-.3-6.9-.8-19.7-1.1-28.5-.3-8.8-.8-20.7-1-26.5-.2-5.8-.7-18.2-1-27.5-1-26.5-.8-25-3.5-23.4z"/></svg>